<?xml version="1.0" standalone="no"?>
<!DOCTYPE svg PUBLIC "-//W3C//DTD SVG 20010904//EN"
 "http://www.w3.org/TR/2001/REC-SVG-20010904/DTD/svg10.dtd">
<svg version="1.0" xmlns="http://www.w3.org/2000/svg"
 width="450.000000pt" height="450.000000pt" viewBox="0 0 450.000000 450.000000"
 preserveAspectRatio="xMidYMid meet">
<metadata>
Created by potrace 1.11, written by Peter Selinger 2001-2013
</metadata>
<g transform="translate(0.000000,450.000000) scale(0.100000,-0.100000)"
fill="#000000" stroke="none">
<path d="M2089 4496 c-2 -2 -35 -6 -74 -10 -76 -6 -91 -9 -210 -32 -597 -116
-1142 -497 -1466 -1024 -72 -116 -128 -227 -135 -265 -10 -57 55 -119 116
-108 36 6 62 37 116 138 109 207 204 336 369 500 267 268 580 448 936 539 104
27 117 30 229 47 98 14 382 19 490 8 319 -33 651 -151 915 -325 99 -64 98 -64
199 -149 226 -191 393 -408 529 -687 61 -125 77 -150 104 -163 56 -27 125 6
138 66 16 72 -150 385 -323 609 -83 108 -272 296 -382 382 -308 238 -668 393
-1055 454 -94 14 -485 30 -496 20z"/>
<path d="M2015 3759 c-21 -6 -216 -195 -652 -631 -587 -588 -623 -625 -623
-658 0 -44 14 -65 114 -165 l79 -79 -45 -19 c-57 -23 -84 -67 -74 -120 8 -42
49 -77 91 -77 41 0 270 78 289 99 22 24 96 247 96 289 0 49 -46 92 -98 92 -33
0 -45 -6 -71 -35 -17 -20 -31 -44 -31 -54 0 -10 -3 -21 -7 -25 -7 -7 -93 73
-93 87 0 5 237 246 526 535 l525 525 82 -80 c45 -45 92 -84 105 -88 32 -9 88
12 106 40 22 33 20 87 -3 116 -42 54 -234 235 -259 245 -17 7 -39 8 -57 3z"/>
<path d="M2874 3554 c-34 -7 -81 -22 -105 -34 -48 -24 -661 -626 -683 -670 -7
-14 -11 -31 -10 -37 1 -7 2 -20 3 -29 0 -8 14 -29 30 -45 38 -37 87 -39 128
-5 16 14 160 155 319 314 264 264 295 292 340 305 54 16 92 13 140 -9 46 -22
296 -276 316 -321 21 -48 16 -123 -12 -167 -34 -55 -766 -779 -807 -799 -50
-23 -131 -17 -175 14 -18 13 -86 76 -152 142 -65 65 -130 123 -143 128 -61 23
-133 -28 -133 -94 0 -36 8 -47 128 -169 70 -71 147 -145 172 -163 112 -82 267
-96 394 -35 63 29 103 66 456 419 213 212 401 406 419 430 91 127 88 325 -5
449 -37 48 -269 280 -315 315 -78 59 -200 83 -305 61z"/>
<path d="M1686 3011 l-68 -69 65 -66 c36 -36 70 -66 74 -66 5 0 39 30 76 68
l67 68 -68 67 c-37 37 -70 67 -73 67 -2 0 -35 -31 -73 -69z"/>
<path d="M104 2770 c-55 -22 -72 -108 -31 -154 14 -17 37 -28 64 -32 39 -6 45
-4 77 28 29 29 34 40 30 74 -6 70 -74 111 -140 84z"/>
<path d="M4333 2660 c-24 -10 -53 -58 -53 -89 0 -86 110 -131 168 -68 77 82
-9 200 -115 157z"/>
<path d="M1962 2639 c-114 -21 -134 -37 -536 -437 -208 -207 -395 -398 -416
-424 -57 -71 -83 -147 -82 -243 1 -147 36 -207 237 -404 118 -116 157 -148
209 -171 114 -52 243 -49 351 9 59 31 684 649 686 678 1 10 2 25 3 33 2 24
-22 68 -45 81 -39 20 -70 20 -102 -1 -18 -11 -162 -151 -322 -311 -316 -317
-339 -335 -422 -324 -25 3 -59 13 -75 21 -39 20 -283 266 -304 305 -22 43 -21
126 1 169 23 44 759 781 802 804 18 9 50 18 70 20 75 6 114 -18 247 -149 68
-67 134 -130 147 -139 63 -44 149 5 149 84 0 38 -6 47 -117 162 -134 138 -212
199 -281 222 -57 19 -140 25 -200 15z"/>
<path d="M48 2266 c-49 -37 -53 -99 -22 -338 28 -217 127 -521 239 -733 39
-73 168 -275 203 -316 172 -206 275 -307 427 -421 44 -32 87 -65 95 -71 28
-22 133 -84 230 -135 194 -103 485 -198 700 -228 150 -20 419 -26 575 -11 97
9 296 49 402 81 766 230 1354 850 1541 1627 17 68 33 142 36 164 3 22 7 58 11
80 12 86 12 124 -2 153 -33 67 -137 69 -173 2 -10 -19 -13 -33 -30 -170 -15
-119 -72 -329 -126 -462 -166 -415 -459 -759 -844 -993 -193 -118 -412 -204
-635 -250 -165 -34 -235 -40 -440 -40 -319 1 -581 61 -870 199 -462 222 -829
617 -1018 1096 -40 102 -88 261 -101 330 -9 52 -16 96 -21 125 -5 34 -16 144
-19 208 -3 50 -18 80 -48 101 -27 19 -87 20 -110 2z"/>
<path d="M3240 2239 c-65 -22 -124 -49 -137 -62 -12 -13 -39 -76 -63 -150 -36
-112 -40 -132 -30 -162 14 -41 29 -55 75 -65 48 -11 94 20 116 79 l16 43 41
-42 c24 -22 43 -45 45 -50 1 -8 -857 -876 -1022 -1034 l-30 -29 -82 81 c-46
45 -90 82 -98 83 -9 0 -23 2 -33 4 -25 5 -77 -32 -89 -62 -21 -56 -5 -82 124
-210 128 -127 151 -144 183 -138 10 2 25 4 32 4 24 2 1259 1244 1264 1271 9
50 -11 84 -103 175 l-90 90 39 13 c52 17 82 51 84 93 1 45 -15 75 -52 94 -40
21 -59 18 -190 -26z"/>
<path d="M2535 1460 l-69 -69 25 -27 c45 -48 112 -114 116 -114 2 0 35 31 73
68 l69 69 -72 71 -73 72 -69 -70z"/>
</g>
</svg>
